<?xml version="1.0" standalone="no"?>
<!DOCTYPE svg PUBLIC "-//W3C//DTD SVG 20010904//EN"
 "http://www.w3.org/TR/2001/REC-SVG-20010904/DTD/svg10.dtd">
<svg version="1.0" xmlns="http://www.w3.org/2000/svg"
 width="792.000000pt" height="413.000000pt" viewBox="0 0 792.000000 413.000000"
 preserveAspectRatio="xMidYMid meet">

<g transform="translate(0.000000,413.000000) scale(0.100000,-0.100000)"
fill="#000000" stroke="none">
<path d="M1215 3956 c-322 -138 -561 -291 -751 -481 -220 -219 -318 -439 -317
-710 1 -140 27 -253 93 -405 86 -199 204 -357 463 -620 255 -259 311 -323 399
-460 184 -284 225 -527 139 -830 -28 -99 -90 -260 -132 -342 -11 -21 -15 -38
-9 -38 19 0 266 206 384 320 349 338 516 645 516 951 0 307 -142 578 -519 988
-198 215 -308 387 -370 579 -42 128 -54 222 -49 369 9 227 73 409 224 641 30
46 54 85 52 87 -2 1 -57 -21 -123 -49z"/>
<path d="M1392 3842 c-123 -190 -191 -378 -199 -559 -15 -306 95 -549 397
-878 268 -291 411 -505 484 -725 48 -144 60 -229 53 -385 -10 -210 -70 -386
-195 -578 -72 -110 -69 -104 -39 -84 15 9 39 25 55 34 80 51 268 202 347 279
187 184 306 374 361 580 28 103 26 359 -4 466 -80 290 -257 531 -612 832 -286
242 -427 390 -491 518 -73 145 -90 216 -98 417 l-6 165 -53 -82z"/>
<path d="M5590 2783 c-102 -17 -196 -69 -264 -145 -150 -166 -132 -492 37
-644 135 -122 351 -148 546 -64 l51 22 0 128 c0 162 5 187 41 206 16 8 29 19
29 24 0 6 -70 10 -181 10 -132 0 -180 -3 -177 -12 2 -6 24 -17 48 -24 23 -7
47 -19 51 -26 5 -7 9 -79 9 -159 0 -165 -1 -168 -73 -176 -72 -8 -126 13 -182
70 -76 78 -90 135 -89 352 0 153 2 176 23 228 43 109 116 166 226 174 98 8
123 -7 179 -116 62 -121 76 -120 76 5 l0 95 -37 16 c-91 38 -215 53 -313 36z"/>
<path d="M6408 2775 c-208 -53 -328 -211 -328 -431 0 -95 14 -163 47 -231 56
-115 171 -199 308 -224 106 -20 253 3 353 55 l32 17 0 148 c0 157 3 167 53
184 9 4 17 11 17 17 0 6 -63 10 -180 10 -146 0 -180 -3 -180 -14 0 -8 16 -16
39 -20 64 -10 71 -29 71 -186 0 -93 -4 -141 -12 -153 -17 -22 -93 -32 -144
-18 -108 29 -172 121 -194 279 -25 172 5 360 70 453 37 50 103 82 184 86 99 6
123 -11 178 -122 30 -59 48 -85 60 -85 15 0 18 9 17 58 0 31 -3 75 -7 97 -7
38 -11 41 -67 64 -76 30 -231 38 -317 16z"/>
<path d="M7247 2780 c-64 -16 -138 -60 -189 -111 -133 -133 -164 -379 -73
-566 118 -240 440 -295 633 -110 84 82 121 168 129 307 7 113 -6 185 -48 270
-65 130 -188 210 -333 216 -45 2 -98 -1 -119 -6z m183 -52 c80 -41 109 -124
117 -339 9 -242 -25 -394 -99 -438 -75 -47 -185 -35 -238 25 -50 58 -62 117
-67 330 -5 171 -3 200 16 275 16 63 29 91 53 116 55 56 143 69 218 31z"/>
<path d="M2910 2755 c0 -9 8 -18 18 -22 9 -3 25 -13 35 -21 16 -14 17 -45 17
-374 0 -390 3 -369 -56 -404 -15 -9 -16 -15 -7 -24 17 -18 429 -7 498 12 140
41 206 112 206 223 0 105 -71 178 -202 206 l-52 11 53 18 c62 21 97 46 126 88
61 89 25 210 -76 262 -59 30 -149 40 -362 40 -171 0 -198 -2 -198 -15z m417
-45 c47 -28 63 -67 63 -155 0 -133 -32 -172 -151 -182 l-69 -6 0 182 0 181 63
0 c44 0 71 -6 94 -20z m22 -398 c56 -28 73 -61 79 -146 9 -150 -42 -213 -182
-223 l-76 -6 0 197 0 196 73 0 c49 0 83 -6 106 -18z"/>
<path d="M3690 2757 c0 -9 12 -22 28 -29 25 -12 28 -19 33 -83 8 -92 9 -486 0
-600 -6 -85 -7 -90 -33 -103 -16 -7 -28 -20 -28 -28 0 -12 25 -14 163 -12 165
3 189 10 132 37 -17 8 -33 19 -37 25 -4 6 -8 86 -8 179 l0 167 48 0 48 0 29
-62 c16 -35 59 -127 97 -205 l67 -143 116 0 c93 0 115 3 115 14 0 8 -9 17 -19
21 -47 14 -76 55 -159 219 -48 94 -88 174 -90 177 -1 4 16 16 40 29 188 96
182 306 -11 381 -50 20 -80 23 -293 27 -211 4 -238 3 -238 -11z m427 -52 c41
-24 61 -61 69 -128 13 -106 -25 -188 -99 -216 -16 -6 -55 -11 -88 -11 l-59 0
0 191 0 192 73 -5 c45 -3 85 -12 104 -23z"/>
<path d="M4500 2756 c0 -8 9 -18 20 -21 51 -16 50 -11 50 -398 0 -199 -4 -367
-8 -374 -4 -6 -20 -16 -35 -22 -15 -6 -27 -17 -27 -26 0 -13 40 -15 325 -15
l325 0 0 44 c0 23 3 71 6 105 6 57 5 61 -13 61 -16 0 -28 -18 -53 -75 -18 -42
-41 -80 -51 -85 -10 -6 -76 -10 -148 -10 l-131 0 0 195 0 195 71 0 c85 0 100
-7 124 -59 10 -23 24 -41 32 -41 10 0 13 26 13 120 0 97 -3 120 -14 120 -8 0
-18 -10 -22 -22 -3 -13 -15 -35 -26 -50 -18 -27 -24 -28 -99 -28 l-79 0 0 180
0 180 120 0 c140 0 139 0 185 -102 20 -46 36 -68 48 -68 15 0 17 11 17 89 0
49 -3 96 -6 105 -5 14 -43 16 -315 16 -262 0 -309 -2 -309 -14z"/>
<path d="M142 2078 c-58 -175 -67 -233 -67 -458 0 -225 11 -285 75 -426 63
-139 133 -216 355 -393 219 -174 313 -276 380 -408 34 -69 75 -198 75 -240 0
-46 19 -20 63 84 100 242 127 346 127 500 0 163 -47 303 -155 468 -81 123
-146 196 -385 440 -196 199 -316 344 -392 470 -18 30 -35 55 -39 55 -3 0 -20
-42 -37 -92z"/>
<path d="M2912 1768 c-18 -18 -14 -46 7 -58 14 -7 782 -10 2413 -10 1954 0
2397 2 2412 13 11 8 17 23 14 38 l-3 24 -2415 3 c-1871 1 -2419 -1 -2428 -10z"/>
<path d="M3575 1599 c-5 -6 -1 -16 9 -21 23 -13 24 -198 1 -198 -8 0 -15 -7
-15 -15 0 -11 11 -15 40 -15 29 0 40 4 40 15 0 8 -4 15 -10 15 -5 0 -10 25
-10 55 0 30 4 55 9 55 5 0 16 3 24 6 25 9 47 -24 47 -72 0 -33 -4 -44 -16 -44
-32 0 -6 -25 29 -28 28 -2 37 1 37 12 0 9 -4 16 -10 16 -5 0 -10 24 -10 53 0
72 -15 91 -68 85 l-41 -3 -3 45 c-2 37 -7 46 -25 48 -11 2 -24 -2 -28 -9z"/>
<path d="M2900 1586 c0 -9 5 -16 10 -16 6 0 10 -38 10 -95 0 -57 -4 -95 -10
-95 -5 0 -10 -7 -10 -15 0 -25 120 -21 154 6 29 23 35 68 11 92 -13 13 -13 16
0 27 19 16 19 59 -1 85 -20 27 -164 37 -164 11z m140 -31 c10 -12 10 -21 1
-41 -9 -21 -17 -25 -49 -22 -35 3 -37 5 -40 41 l-3 37 39 0 c23 0 45 -6 52
-15z m0 -110 c17 -20 3 -54 -25 -61 -44 -11 -60 -2 -63 39 -3 37 -3 37 36 37
22 0 45 -6 52 -15z"/>
<path d="M3292 1583 c2 -10 10 -18 18 -18 22 0 18 29 -3 33 -14 3 -18 -1 -15
-15z"/>
<path d="M4340 1586 c0 -9 7 -16 15 -16 12 0 15 -17 15 -95 0 -80 -2 -95 -16
-95 -32 0 -6 -25 29 -28 27 -2 37 1 37 12 0 8 -5 16 -10 18 -7 2 -10 35 -8 88
l3 84 41 -100 c23 -56 46 -99 54 -99 8 0 30 40 52 94 21 52 40 96 43 99 3 3 5
-34 5 -81 0 -73 -3 -87 -16 -87 -31 0 -7 -25 28 -28 25 -2 37 2 41 12 4 10 1
16 -8 16 -12 0 -15 18 -15 95 0 57 4 95 10 95 6 0 10 7 10 16 0 11 -9 14 -36
12 -36 -3 -36 -4 -72 -100 -20 -54 -39 -98 -42 -98 -3 0 -22 44 -41 98 l-35
97 -42 3 c-33 2 -42 0 -42 -12z"/>
<path d="M3817 1563 c-4 -3 -7 -15 -7 -25 0 -10 -7 -18 -15 -18 -8 0 -15 -4
-15 -10 0 -5 7 -10 15 -10 12 0 15 -14 15 -63 0 -70 10 -87 52 -87 33 0 38 17
6 22 -21 3 -23 9 -26 66 -3 57 -1 62 18 62 11 0 20 5 20 10 0 6 -9 10 -20 10
-15 0 -20 7 -20 25 0 24 -10 32 -23 18z"/>
<path d="M5667 1563 c-4 -3 -7 -15 -7 -25 0 -10 -7 -18 -15 -18 -8 0 -15 -4
-15 -10 0 -5 7 -10 15 -10 12 0 15 -14 15 -63 0 -68 10 -87 46 -87 31 0 40 18
12 22 -21 3 -23 9 -26 66 -3 57 -1 62 18 62 11 0 20 5 20 10 0 6 -9 10 -20 10
-15 0 -20 7 -20 25 0 24 -10 32 -23 18z"/>
<path d="M3439 1522 c-39 -4 -60 -33 -61 -82 -1 -59 33 -94 85 -87 40 6 44 1
24 -28 -11 -14 -22 -17 -55 -12 -46 6 -64 -6 -33 -22 23 -13 81 -14 97 -3 25
16 34 55 34 140 l0 90 -32 3 c-18 2 -45 3 -59 1z m49 -31 c9 -5 12 -25 10 -57
-3 -45 -5 -49 -31 -52 -38 -5 -57 14 -57 54 0 50 40 79 78 55z"/>
<path d="M3973 1522 c-52 -8 -74 -111 -33 -152 24 -24 78 -26 106 -5 20 15 20
16 -40 18 -28 2 -43 8 -53 25 l-15 22 60 0 c34 0 63 3 65 8 3 4 0 22 -7 41
-11 36 -39 50 -83 43z m55 -44 c3 -15 -4 -18 -37 -18 -43 0 -50 7 -29 28 18
18 62 11 66 -10z"/>
<path d="M4753 1523 c-29 -6 -63 -49 -63 -80 0 -31 25 -79 45 -87 35 -13 76
-6 100 19 61 60 4 164 -82 148z m59 -40 c33 -30 19 -91 -25 -107 -29 -10 -71
38 -62 72 13 53 50 68 87 35z"/>
<path d="M5283 1522 c-54 -8 -74 -109 -30 -150 25 -24 66 -28 98 -12 32 17 22
28 -21 23 -41 -6 -70 8 -70 33 0 10 16 14 60 14 66 0 72 8 45 59 -14 29 -41
39 -82 33z m55 -44 c3 -15 -4 -18 -37 -18 -43 0 -50 7 -29 28 18 18 62 11 66
-10z"/>
<path d="M3110 1509 c0 -5 7 -12 15 -15 11 -5 15 -21 15 -60 0 -41 -4 -54 -15
-54 -8 0 -15 -7 -15 -16 0 -12 9 -14 42 -12 39 3 69 28 33 28 -13 0 -16 9 -13
53 3 48 5 52 31 55 15 2 27 9 27 17 0 10 -16 13 -60 14 -33 0 -60 -4 -60 -10z"/>
<path d="M3270 1505 c0 -8 5 -15 10 -15 6 0 10 -25 10 -55 0 -30 -4 -55 -10
-55 -5 0 -10 -7 -10 -16 0 -11 9 -14 37 -12 35 3 61 28 29 28 -13 0 -16 13
-16 70 0 68 -1 70 -25 70 -16 0 -25 -6 -25 -15z"/>
<path d="M4110 1504 c0 -8 5 -14 10 -14 6 0 10 -25 10 -55 0 -30 -4 -55 -10
-55 -5 0 -10 -7 -10 -15 0 -11 11 -15 40 -15 29 0 40 4 40 15 0 8 -7 15 -15
15 -11 0 -15 11 -15 39 0 57 8 71 41 71 18 0 29 5 29 14 0 10 -15 14 -60 14
-45 0 -60 -4 -60 -14z"/>
<path d="M4890 1510 c0 -6 7 -13 15 -16 22 -9 21 -114 -1 -114 -32 0 -6 -25
29 -28 28 -2 37 1 37 12 0 9 -4 16 -10 16 -5 0 -10 23 -10 50 0 45 3 52 26 62
22 11 28 10 40 -7 20 -27 19 -105 -2 -105 -32 0 -6 -25 29 -28 28 -2 37 1 37
12 0 9 -4 16 -10 16 -5 0 -10 23 -10 50 0 44 3 52 25 62 37 17 55 -4 55 -63 0
-27 -4 -49 -10 -49 -5 0 -10 -7 -10 -15 0 -10 10 -15 34 -15 21 0 36 6 40 15
3 9 0 15 -9 15 -11 0 -15 13 -15 53 0 72 -15 91 -66 83 -21 -3 -43 -6 -49 -6
-5 1 -45 3 -87 5 -49 3 -78 1 -78 -5z"/>
<path d="M5420 1504 c0 -8 5 -14 10 -14 6 0 10 -25 10 -55 0 -30 -4 -55 -10
-55 -5 0 -10 -7 -10 -16 0 -11 9 -14 37 -12 35 3 61 28 29 28 -12 0 -16 11
-16 50 0 39 4 51 20 60 12 6 30 8 40 5 17 -5 20 -15 20 -61 0 -30 -4 -54 -10
-54 -5 0 -10 -7 -10 -15 0 -11 11 -15 40 -15 41 0 57 21 25 34 -11 4 -15 21
-15 59 0 32 -5 59 -13 65 -19 17 -147 13 -147 -4z"/>
</g>
</svg>
