<?xml version="1.0" encoding="UTF-8"?>
<svg version="1.1" xmlns="http://www.w3.org/2000/svg" width="692" height="361">
<path d="M0 0 C0.57519531 1.88232422 0.57519531 1.88232422 1 4 C-0.203125 5.8828125 -0.203125 5.8828125 -2 8 C-17.82295532 32.14720573 -27.33810679 58.46231873 -21.4375 87.5625 C-17.16316703 106.88311131 -7.01919976 124.26000166 6 139 C6.73089844 139.82886719 7.46179688 140.65773437 8.21484375 141.51171875 C11.36894198 145.04275666 14.5642362 148.53358878 17.7890625 152 C18.25127197 152.50015625 18.71348145 153.0003125 19.18969727 153.515625 C20.4986208 154.93092912 21.81361265 156.34061386 23.12890625 157.75 C25 160 25 160 25 162 C25.66 162 26.32 162 27 162 C28.96629229 164.35652568 30.80901612 166.71846522 32.625 169.1875 C33.16406982 169.91638428 33.70313965 170.64526855 34.25854492 171.39624023 C50.53520963 193.64822134 61.42718878 217.50964567 58.375 245.625 C54.95338303 266.82560708 44.61248324 283.91811047 31.31347656 300.35009766 C30.24488477 301.69239196 29.23420034 303.08062841 28.2421875 304.48046875 C27.83226562 304.98191406 27.42234375 305.48335938 27 306 C26.34 306 25.68 306 25 306 C24.72921631 306.59530518 24.45843262 307.19061035 24.17944336 307.80395508 C23.01394487 309.97403559 21.85807034 311.39984624 20.12890625 313.13671875 C19.56059082 313.70914307 18.99227539 314.28156738 18.40673828 314.87133789 C17.79813965 315.47067139 17.18954102 316.07000488 16.5625 316.6875 C15.93069824 317.31325928 15.29889648 317.93901855 14.64794922 318.58374023 C10.28736201 322.85345893 5.79458492 326.85136904 1 330.6328125 C-1.3842459 332.51413153 -3.72857547 334.42476695 -6.0625 336.3671875 C-6.77486816 336.95685303 -7.48723633 337.54651855 -8.22119141 338.15405273 C-9.62784418 339.31882246 -11.03131804 340.48744495 -12.43115234 341.66040039 C-15.81412068 344.44091656 -18.74222065 346.69307545 -23 348 C-21.19320562 342.15448878 -19.00438743 336.56619264 -16.625 330.9375 C-7.37664614 308.87996803 -1.99264048 284.1058353 -11 261 C-14.15965338 252.28456571 -14.15965338 252.28456571 -20 246 C-20.17015625 245.18402344 -20.17015625 245.18402344 -20.34375 244.3515625 C-21.31180495 240.88269894 -23.40711783 238.24911061 -25.5 235.375 C-25.9419873 234.75979492 -26.38397461 234.14458984 -26.83935547 233.51074219 C-30.38504314 228.65609115 -34.22456588 224.23592078 -38.3828125 219.890625 C-40 218 -40 218 -40 216 C-40.66 216 -41.32 216 -42 216 C-43.48046875 214.4609375 -43.48046875 214.4609375 -45.1875 212.375 C-48.1100663 208.91212733 -51.15830902 206.02489092 -54.71484375 203.2265625 C-55.13894531 202.82179687 -55.56304687 202.41703125 -56 202 C-56 201.34 -56 200.68 -56 200 C-56.639375 199.731875 -57.27875 199.46375 -57.9375 199.1875 C-60 198 -60 198 -61 195 C-62.32870001 194.3241461 -63.66288166 193.65904231 -65 193 C-87.4746233 171.44360061 -104.331094 141.99666185 -105.44775391 110.59912109 C-105.64839848 99.17738175 -104.25598881 88.65286897 -100 78 C-99.01 77.505 -99.01 77.505 -98 77 C-97.72542969 76.14148438 -97.45085937 75.28296875 -97.16796875 74.3984375 C-95.76602945 70.31921612 -93.73242733 67.16618134 -91.3125 63.625 C-90.86406738 62.96306641 -90.41563477 62.30113281 -89.95361328 61.61914062 C-83.97434222 52.91034195 -76.84266116 43.49576097 -67 39 C-67 38.34 -67 37.68 -67 37 C-65.66162109 35.79833984 -65.66162109 35.79833984 -63.7734375 34.4609375 C-63.07863281 33.96698486 -62.38382813 33.47303223 -61.66796875 32.96411133 C-60.91128906 32.43970459 -60.15460937 31.91529785 -59.375 31.375 C-58.60027344 30.83447998 -57.82554688 30.29395996 -57.02734375 29.73706055 C-50.80853137 25.45141552 -44.47692006 21.56359575 -37.82177734 17.98291016 C-35.879062 16.93474988 -33.94965305 15.86412367 -32.01953125 14.79296875 C-21.64315266 9.10265745 -10.97162831 4.41996443 0 0 Z " fill="#C0C0C0" transform="translate(117,9)"/>
<path d="M0 0 C-0.01571045 0.61294922 -0.0314209 1.22589844 -0.04760742 1.85742188 C-0.51702551 23.04263638 1.11606648 40.75246621 12.86328125 59.0390625 C14 61 14 61 14 63 C14.66 63 15.32 63 16 63 C17.48046875 64.7578125 17.48046875 64.7578125 19.1875 67.125 C21.92180214 70.75178745 24.66911557 73.70437426 28.2265625 76.515625 C30.63537559 78.53181216 32.78548558 80.77255411 35 83 C37.04142242 84.96059385 39.11058538 86.88962107 41.1875 88.8125 C41.72052734 89.31458984 42.25355469 89.81667969 42.80273438 90.33398438 C45.46351418 93.12085707 45.46351418 93.12085707 49 94 C50.34070414 95.66074319 51.67275611 97.32847997 53 99 C54.6101127 100.3762566 56.25916926 101.70781152 57.9375 103 C81.27590791 121.80124738 103.20316621 149.44623374 107 180 C107.9844259 197.27624659 107.18575967 213.40126216 99 229 C98.56945312 229.85722656 98.13890625 230.71445313 97.6953125 231.59765625 C91.95998975 242.61877645 84.51574587 252.00279854 76 261 C75.35289062 261.68835938 74.70578125 262.37671875 74.0390625 263.0859375 C64.74999931 272.67831704 53.93477992 280.41767955 43 288 C41.93394531 288.75667969 40.86789063 289.51335937 39.76953125 290.29296875 C37 292 37 292 34 292 C34 290.35 34 288.7 34 287 C34.99 286.67 35.98 286.34 37 286 C39.37421371 282.9114211 41.13112657 279.41090353 43 276 C43.32194336 275.42797852 43.64388672 274.85595703 43.97558594 274.26660156 C54.55796312 255.30777981 59.63999221 234.01931622 55.625 212.4375 C55.49899414 211.75888916 55.37298828 211.08027832 55.24316406 210.38110352 C54.54927357 206.93025286 53.56882744 204.1196912 52 201 C51.55720703 199.13794922 51.55720703 199.13794922 51.10546875 197.23828125 C50.07086286 192.89172997 48.35820692 189.14370486 46.3125 185.1875 C45.95873291 184.49390381 45.60496582 183.80030762 45.24047852 183.08569336 C40.38127542 173.70079383 34.63135409 165.21496103 28 157 C27.30261719 156.11699219 26.60523438 155.23398438 25.88671875 154.32421875 C22.27706268 149.65104276 22.27706268 149.65104276 18.265625 145.3359375 C17 144 17 144 17 142 C16.34 142 15.68 142 15 142 C13.4921875 140.5390625 13.4921875 140.5390625 11.875 138.625 C11.33617187 137.99851563 10.79734375 137.37203125 10.2421875 136.7265625 C9 135 9 135 9 133 C8.01 132.67 7.02 132.34 6 132 C4.17865913 129.91090143 2.48449363 127.82824638 0.8125 125.625 C0.32418701 124.98723633 -0.16412598 124.34947266 -0.66723633 123.69238281 C-1.65617117 122.39715219 -2.64212066 121.09963648 -3.625 119.79980469 C-4.79702866 118.26567911 -6.00439285 116.75865532 -7.21875 115.2578125 C-21.74727308 96.75124143 -26.52910305 74.05614044 -25 51 C-22.78691923 33.27253856 -13.55055753 15.17037579 -3 1 C-1 0 -1 0 0 0 Z " fill="#FFFFFF" transform="translate(128,16)"/>
<path d="M0 0 C0.66 0 1.32 0 2 0 C3.41629255 2.03592055 4.71774745 4.06895969 6 6.1875 C9.61653861 12.01489523 13.52052741 17.47479783 17.8125 22.82299805 C19.72868 25.23242551 21.0157331 27.04719931 22 30 C22.66 30 23.32 30 24 30 C25.27392578 31.29956055 25.27392578 31.29956055 26.8203125 33.19921875 C30.06560006 37.01616716 33.49210786 40.56614659 37.0546875 44.08203125 C37.60417053 44.62584442 38.15365356 45.16965759 38.7197876 45.72994995 C41.0080357 47.9913457 43.30010916 50.24877447 45.59716797 52.5012207 C52.89698475 59.66878688 59.72083588 66.90286529 66 75 C67.06661865 76.36922607 67.06661865 76.36922607 68.15478516 77.76611328 C80.47845862 93.81180739 88.43023229 112.41487095 87 133 C84.93017805 146.97129814 80.9367614 161.15721004 75 174 C74.34 174.33 73.68 174.66 73 175 C72.690625 175.99 72.38125 176.98 72.0625 178 C71.711875 178.99 71.36125 179.98 71 181 C70.01 181.33 69.02 181.66 68 182 C67.81824219 180.39318359 67.81824219 180.39318359 67.6328125 178.75390625 C67.46402399 177.35671248 67.29472687 175.95958009 67.125 174.5625 C67.04636719 173.85544922 66.96773438 173.14839844 66.88671875 172.41992188 C66.66072324 170.60326568 66.33699273 168.79937478 66 167 C65.34 166.67 64.68 166.34 64 166 C63.39453125 164.3203125 63.39453125 164.3203125 62.8125 162.125 C58.47872233 148.51995667 47.76517533 137.89198969 37 129 C36.39542969 128.49210938 35.79085937 127.98421875 35.16796875 127.4609375 C33.78413107 126.30071762 32.39298927 125.14921615 31 124 C30.01 124.495 30.01 124.495 29 125 C28.60039063 124.25363281 28.20078125 123.50726563 27.7890625 122.73828125 C25.89986982 119.84674398 24.11990513 118.25707133 21.375 116.1875 C20.48683594 115.49269531 19.59867188 114.79789062 18.68359375 114.08203125 C17.01146175 112.78472942 15.33732873 111.48999757 13.66015625 110.19921875 C0.08289683 99.05584414 -7.84970605 81.1969936 -9.75390625 63.94140625 C-10.9994652 43.99269224 -11.62618468 17.43927702 0 0 Z " fill="#FFFFFF" transform="translate(15,170)"/>
<path d="M0 0 C0.71167969 -0.00290688 1.42335938 -0.00581376 2.15660512 -0.00880873 C4.55960162 -0.01615197 6.96234622 -0.0091454 9.36534119 -0.002285 C11.09820976 -0.00458773 12.83107737 -0.00776298 14.56394291 -0.01173949 C19.34006038 -0.020122 24.11609837 -0.01594661 28.89221621 -0.00976706 C34.03746879 -0.00525764 39.18270733 -0.01221879 44.32795715 -0.0177269 C54.41316053 -0.02663875 64.49833421 -0.02469093 74.58353877 -0.01890162 C82.77709494 -0.01439216 90.97064277 -0.01376911 99.16419983 -0.01594925 C100.91076845 -0.01640895 100.91076845 -0.01640895 102.69262129 -0.01687793 C105.0577395 -0.01751736 107.4228577 -0.01816579 109.78797591 -0.01882312 C131.98650201 -0.02453166 154.18501163 -0.01796031 176.38353503 -0.00722238 C195.44738428 0.0017136 214.51120917 0.0001617 233.57505798 -0.00905991 C255.69199112 -0.01975329 277.80890979 -0.02398229 299.92584515 -0.01783538 C302.28245735 -0.01719825 304.63906955 -0.01656951 306.99568176 -0.01594925 C308.15530098 -0.0156407 309.31492019 -0.01533215 310.50967938 -0.01501425 C318.69717604 -0.01328451 326.88466356 -0.0162084 335.07215881 -0.02090836 C345.04454711 -0.02650685 355.0169039 -0.02502253 364.98928857 -0.01434687 C370.08121872 -0.00907622 375.17309628 -0.00705701 380.26502609 -0.01364517 C384.92076436 -0.01957804 389.57640097 -0.01637385 394.23212993 -0.00569007 C395.92185263 -0.00344468 397.61158382 -0.00461761 399.30130112 -0.00944164 C401.58761893 -0.01547129 403.87358268 -0.00933847 406.15988159 0 C407.43297652 0.0003247 408.70607145 0.00064941 410.01774502 0.00098395 C413.0799408 0.25168228 413.0799408 0.25168228 416.0799408 2.25168228 C416.3924408 4.75168228 416.3924408 4.75168228 416.0799408 7.25168228 C413.21575495 10.11586813 411.2638314 9.50234615 407.24890137 9.50336456 C406.53469918 9.50627144 405.82049699 9.50917833 405.0846523 9.5121733 C402.66706401 9.51953122 400.24972494 9.51250324 397.83213806 9.50564957 C396.09117025 9.50795172 394.35020341 9.51112658 392.60923862 9.51510406 C387.80612823 9.52349451 383.00309676 9.51930761 378.19998598 9.51313162 C373.02746818 9.50862542 367.8549644 9.51558174 362.68244934 9.52109146 C352.54196486 9.53000678 342.4015099 9.52805396 332.26102424 9.52226618 C324.02309917 9.51775808 315.78518241 9.51713308 307.54725647 9.51931381 C305.79172544 9.51977351 305.79172544 9.51977351 304.00072914 9.5202425 C301.62352967 9.52088192 299.2463302 9.52153034 296.86913073 9.52218768 C274.5533237 9.52789724 252.23753307 9.52132328 229.92172873 9.51058695 C210.75408026 9.50165087 191.58645601 9.50320274 172.41880798 9.51242447 C150.18542933 9.52311607 127.95206506 9.52734786 105.7186842 9.52119994 C103.34999784 9.52056281 100.98131148 9.51993407 98.61262512 9.51931381 C97.44704199 9.51900526 96.28145886 9.51869671 95.08055502 9.51837881 C86.84801646 9.51664853 78.61548699 9.51957412 70.38294983 9.52427292 C60.35670999 9.52986944 50.33050149 9.52839129 40.30426526 9.51771143 C35.18411232 9.5124381 30.06401171 9.51042608 24.9438591 9.51700974 C20.26346112 9.52293713 15.58316435 9.51974764 10.90277565 9.50905463 C9.2029467 9.50680688 7.50310932 9.50798734 5.80328572 9.51280621 C3.50572625 9.51882366 1.20852069 9.51271581 -1.08901978 9.50336456 C-2.36911202 9.50303986 -3.64920427 9.50271515 -4.9680872 9.50238061 C-7.9200592 9.25168228 -7.9200592 9.25168228 -9.9200592 7.25168228 C-10.2325592 4.75168228 -10.2325592 4.75168228 -9.9200592 2.25168228 C-6.22454192 -0.21199591 -4.41235946 0.00112538 0 0 Z " fill="#C0C0C0" transform="translate(262.92005920410156,203.74831771850586)"/>
<path d="M0 0 C5.3893909 -0.04976354 10.77864544 -0.08589047 16.16821289 -0.10986328 C17.99831475 -0.11986648 19.82840084 -0.13347335 21.65844727 -0.15087891 C24.30228588 -0.17537891 26.94591157 -0.18654013 29.58984375 -0.1953125 C30.39646957 -0.20563507 31.2030954 -0.21595764 32.03416443 -0.22659302 C41.1578538 -0.2283597 49.73715704 1.22157101 56.75 7.4375 C61.13862084 12.43565151 61.51080308 16.40656506 61.3671875 22.95703125 C60.80615829 27.60641161 59.32971526 30.70829519 56 34 C53.12092085 35.96913607 50.174597 37.56140267 47 39 C49.26777386 43.58982954 51.55802775 48.16742806 53.86669922 52.73681641 C54.9515932 54.9033324 56.01035319 57.08103776 57.06640625 59.26171875 C57.73080282 60.59162987 58.39613009 61.92107655 59.0625 63.25 C59.49949219 64.17824585 59.49949219 64.17824585 59.9453125 65.12524414 C62.44757136 70.02076195 65.21538755 71.67949168 70 74 C69.01 75.98 69.01 75.98 68 78 C64.89601022 78.08710289 61.79233452 78.14042309 58.6875 78.1875 C57.80642578 78.21263672 56.92535156 78.23777344 56.01757812 78.26367188 C55.17001953 78.27333984 54.32246094 78.28300781 53.44921875 78.29296875 C52.66893311 78.3086792 51.88864746 78.32438965 51.0847168 78.34057617 C48.40202029 77.90230921 47.64791971 77.13485225 46 75 C44.88085938 72.93115234 44.88085938 72.93115234 43.84375 70.5859375 C43.46089844 69.74289063 43.07804687 68.89984375 42.68359375 68.03125 C41.89162572 66.25389599 41.10258238 64.47523602 40.31640625 62.6953125 C39.93355469 61.85484375 39.55070312 61.014375 39.15625 60.1484375 C38.81400391 59.37677246 38.47175781 58.60510742 38.11914062 57.81005859 C37.05931377 55.66387938 37.05931377 55.66387938 34 55 C34.33 54.01 34.66 53.02 35 52 C34.51157651 49.70783785 34.51157651 49.70783785 33.5 47.375 C33.2009375 46.57835937 32.901875 45.78171875 32.59375 44.9609375 C30.67362251 42.14501237 30.67362251 42.14501237 24 42 C24.33 51.9 24.66 61.8 25 72 C26.98 72.66 28.96 73.32 31 74 C31 74.99 31 75.98 31 77 C21.1 77.33 11.2 77.66 1 78 C0.505 75.525 0.505 75.525 0 73 C2.475 72.01 2.475 72.01 5 71 C5.11579655 62.70733878 5.2046645 54.41501466 5.25906086 46.12174511 C5.28516727 42.27089595 5.32058231 38.42059942 5.37719727 34.57006836 C5.43148295 30.85475033 5.46141268 27.13996414 5.47438622 23.42428017 C5.48363259 22.00601132 5.50168912 20.58777194 5.52865028 19.16972923 C5.56488313 17.18529977 5.56704187 15.2003363 5.56762695 13.21557617 C5.58428154 11.52013924 5.58428154 11.52013924 5.60127258 9.79045105 C5.29359709 6.76636777 5.29359709 6.76636777 2.46452332 5.36152649 C1.65123062 4.91222275 0.83793793 4.46291901 0 4 C0 2.68 0 1.36 0 0 Z M24 5 C24 15.56 24 26.12 24 37 C34.39201017 37.14732766 34.39201017 37.14732766 42.4375 31.6875 C45.44891012 26.51204625 44.68405912 19.71629597 44 14 C42.575722 10.13708016 40.43471354 8.28980903 37 6 C32.71 5.67 28.42 5.34 24 5 Z " fill="#C0C0C0" transform="translate(321,118)"/>
<path d="M0 0 C5.31610837 -0.10002085 10.63165079 -0.17200342 15.94848633 -0.21972656 C17.75131795 -0.23965268 19.55408658 -0.26680384 21.35668945 -0.30175781 C46.3661074 -0.77402674 46.3661074 -0.77402674 54.13549805 5.80957031 C58.55300364 10.60583376 59.36123349 15.03542527 59.27734375 21.4296875 C58.828948 25.58524246 57.54053936 27.65718505 55 31 C51.99521878 33.3302385 49.59744541 34.80085153 46 36 C46.58007812 36.23074219 47.16015625 36.46148437 47.7578125 36.69921875 C54.26214464 39.41472375 59.93705692 41.96872955 62.9375 48.75 C64.85095883 54.79789665 63.82336272 59.88789564 61.5625 65.6875 C57.79642519 71.59776338 50.61133061 74.75958869 44.07292175 76.57237244 C40.12536972 77.38672158 36.14680649 77.3614756 32.12890625 77.4140625 C31.206577 77.43342865 30.28424774 77.4527948 29.33396912 77.4727478 C26.41023789 77.5321612 23.48646647 77.57877509 20.5625 77.625 C18.5709471 77.66321502 16.5794101 77.70226877 14.58789062 77.7421875 C9.72539077 77.83783104 4.86281362 77.92200221 0 78 C0 76.35 0 74.7 0 73 C0.639375 72.7525 1.27875 72.505 1.9375 72.25 C4.12568145 71.21984104 4.12568145 71.21984104 4.61982727 69.27331543 C5.06561848 66.60762176 5.13487037 64.08080383 5.14526367 61.37695312 C5.15164352 60.24898315 5.15802338 59.12101318 5.16459656 57.9588623 C5.16570938 56.74525024 5.1668222 55.53163818 5.16796875 54.28125 C5.17296135 52.40620789 5.17296135 52.40620789 5.17805481 50.49328613 C5.18311717 47.85046831 5.18589594 45.20775336 5.18530273 42.56494141 C5.185201 39.18217735 5.19887032 35.79962266 5.21607494 32.41690826 C5.22987694 29.18419667 5.22928373 25.95148707 5.23046875 22.71875 C5.23765427 21.50513794 5.24483978 20.29152588 5.25224304 19.0411377 C5.24916641 17.91316772 5.24608978 16.78519775 5.24291992 15.62304688 C5.24434494 14.63139526 5.24576996 13.63974365 5.24723816 12.61804199 C4.98878895 9.8812845 4.55011814 8.26247963 3 6 C2.01 5.67 1.02 5.34 0 5 C0 3.35 0 1.7 0 0 Z M24 5 C22.59087904 7.81824192 22.88816447 10.17251282 22.90234375 13.3203125 C22.90556641 14.57714844 22.90878906 15.83398438 22.91210938 17.12890625 C22.92048828 18.44761719 22.92886719 19.76632813 22.9375 21.125 C22.94251511 22.46484211 22.94707799 23.804686 22.95117188 25.14453125 C22.96298914 28.42973206 22.97946383 31.71484397 23 35 C24.41913385 35.03062879 25.83846232 35.05230987 27.2578125 35.0703125 C28.44334717 35.08989014 28.44334717 35.08989014 29.65283203 35.10986328 C33.48390045 34.93054346 35.690787 33.9855278 39 32 C42.89599951 26.97290386 42.67059695 21.08974528 42 15 C40.45671046 10.67878929 38.88061991 8.39170151 35 6 C32.19116363 5.42770132 32.19116363 5.42770132 29.25 5.3125 C27.77273438 5.21388672 27.77273438 5.21388672 26.265625 5.11328125 C25.14414062 5.05720703 25.14414062 5.05720703 24 5 Z M23 40 C23 50.56 23 61.12 23 72 C27.43704864 73.47901621 31.45445546 72.92607517 36 72 C39.81128383 69.95824081 41.60679758 68.58980363 44 65 C45.65584353 59.37013199 45.77832722 52.61393496 44 47 C42.08048227 44.01408353 40.60980471 42.312339 37.4375 40.6875 C32.78653141 39.64045375 32.78653141 39.64045375 23 40 Z " fill="#C0C0C0" transform="translate(254,118)"/>
<path d="M0 0 C10.60605099 6.97667538 16.28929769 15.14497854 19.203125 27.44921875 C20.6817273 43.12029588 18.29902815 54.50822927 9.203125 67.44921875 C8.7390625 68.17367187 8.275 68.898125 7.796875 69.64453125 C5.79422339 71.91223969 4.05146061 72.48843689 1.203125 73.44921875 C0.42195312 73.80242187 -0.35921875 74.155625 -1.1640625 74.51953125 C-10.68585094 78.52402171 -20.78749864 79.08460522 -30.671875 75.88671875 C-41.25748717 71.37249781 -47.45774596 64.50613237 -51.828125 53.9609375 C-55.93004574 41.44628116 -55.08647863 27.2745508 -49.3671875 15.5078125 C-45.64551184 8.40700347 -43.07311755 4.87317038 -35.796875 1.32421875 C-34.745 0.80601563 -33.693125 0.2878125 -32.609375 -0.24609375 C-23.49656564 -4.47342476 -9.04324341 -4.50581184 0 0 Z M-26.796875 4.44921875 C-37.14620907 15.32085566 -35.28551535 33.54153524 -34.97387695 47.38647461 C-35.02071375 49.44006794 -35.02071375 49.44006794 -33.796875 50.44921875 C-33.66321094 51.77991871 -33.56549078 53.11428478 -33.484375 54.44921875 C-32.79681676 60.98102199 -30.92375319 66.32234056 -26.234375 71.01171875 C-21.43403133 73.01913519 -16.93601731 73.11684147 -11.796875 72.44921875 C-9.53297814 71.5118656 -9.53297814 71.5118656 -7.796875 70.44921875 C-7.796875 69.78921875 -7.796875 69.12921875 -7.796875 68.44921875 C-6.311875 67.95421875 -6.311875 67.95421875 -4.796875 67.44921875 C3.7696433 53.057468 1.49844244 29.34427932 -1.796875 13.44921875 C-3.80085838 8.83299688 -5.44760166 6.09660252 -9.796875 3.44921875 C-15.8265492 1.10882896 -21.25293356 0.75721492 -26.796875 4.44921875 Z " fill="#FFFFFF" transform="translate(658.796875,119.55078125)"/>
<path d="M0 0 C1 1 1 1 1.11352539 2.76586914 C1.10567017 3.88916626 1.10567017 3.88916626 1.09765625 5.03515625 C1.09282227 6.24848633 1.09282227 6.24848633 1.08789062 7.48632812 C1.07532227 8.7615332 1.07532227 8.7615332 1.0625 10.0625 C1.05798828 10.91650391 1.05347656 11.77050781 1.04882812 12.65039062 C1.03700373 14.76695663 1.01906769 16.88348685 1 19 C-1.77734375 18.9296875 -1.77734375 18.9296875 -5 18 C-6.49939366 15.64079307 -7.53200391 13.67452367 -8.5625 11.125 C-10.54275559 6.35504127 -12.04813116 3.15671017 -17 1 C-23.27877605 0.13820721 -28.52967492 2.05086216 -34 5 C-41.34301133 11.22559656 -42.97876662 21.68339716 -43.875 30.875 C-44.4207176 42.81423622 -43.5462645 55.45825212 -35.5625 64.875 C-30.80730585 68.81833173 -27.28269536 70.66342703 -21 71 C-18.525 70.01 -18.525 70.01 -16 69 C-16 60.09 -16 51.18 -16 42 C-18.97 41.34 -21.94 40.68 -25 40 C-25 38.68 -25 37.36 -25 36 C-14.11 36 -3.22 36 8 36 C8 37.32 8 38.64 8 40 C6.35 40.66 4.7 41.32 3 42 C2.67 51.24 2.34 60.48 2 70 C-10.85170703 76.42585351 -26.10836029 79.08401495 -40.1875 74.4375 C-50.50387282 69.81291908 -56.70122914 62.71764261 -61.609375 52.72265625 C-63.09322847 48.75043052 -63.67139397 45.13226892 -63.875 40.9375 C-63.91399414 40.20233154 -63.95298828 39.46716309 -63.99316406 38.7097168 C-64.41532798 26.31867146 -61.37248373 15.20931176 -52.9765625 5.90234375 C-49.82641211 2.87047964 -45.56864866 -1 -41 -1 C-40.67 -1.66 -40.34 -2.32 -40 -3 C-28.10196662 -6.04825648 -10.87164373 -6.23741771 0 0 Z " fill="#FFFFFF" transform="translate(594,121)"/>
<path d="M0 0 C1.0120752 0.00394775 2.02415039 0.00789551 3.06689453 0.01196289 C18.49691201 0.30941201 18.49691201 0.30941201 23.625 5.4375 C23.88931926 8.08950323 24.09374867 10.71642965 24.25 13.375 C24.3015625 14.11685547 24.353125 14.85871094 24.40625 15.62304688 C24.74937576 21.18874849 24.74937576 21.18874849 23.625 23.4375 C21.36328125 23.33984375 21.36328125 23.33984375 18.625 22.4375 C16.60546875 19.56640625 16.60546875 19.56640625 14.8125 16 C14.34553711 15.1018457 14.34553711 15.1018457 13.86914062 14.18554688 C11.625 9.78111264 11.625 9.78111264 11.625 7.4375 C4.82935572 4.78554126 -0.81905532 4.68213686 -7.5234375 7.46484375 C-13.40487244 10.55445831 -16.92085241 16.29687635 -19.06640625 22.40625 C-22.55941695 36.2805862 -22.106612 54.31069018 -15.125 66.9375 C-11.66412869 71.92156916 -7.62947456 73.94075137 -1.6875 75.25 C2.13326932 75.58162734 2.13326932 75.58162734 5.625 74.4375 C8.31368081 69.67911525 7.95652637 64.61705154 7.9375 59.3125 C7.95361328 58.40628906 7.96972656 57.50007813 7.98632812 56.56640625 C7.98697266 55.69628906 7.98761719 54.82617188 7.98828125 53.9296875 C7.99126221 53.13933105 7.99424316 52.34897461 7.99731445 51.53466797 C7.52848596 48.89385696 6.72762608 48.05970955 4.625 46.4375 C1.52492799 45.23700593 1.52492799 45.23700593 -1.375 44.4375 C-1.375 43.1175 -1.375 41.7975 -1.375 40.4375 C9.185 40.4375 19.745 40.4375 30.625 40.4375 C30.625 41.7575 30.625 43.0775 30.625 44.4375 C29.97756836 44.88714111 29.33013672 45.33678223 28.66308594 45.80004883 C26.33475645 47.30945805 26.33475645 47.30945805 26.07910156 50.2565918 C26.0581543 51.37203369 26.03720703 52.48747559 26.015625 53.63671875 C25.98339844 54.84521484 25.95117188 56.05371094 25.91796875 57.29882812 C25.90378906 58.56146484 25.88960937 59.82410156 25.875 61.125 C25.83052734 63.03635742 25.83052734 63.03635742 25.78515625 64.98632812 C25.71435951 68.13678292 25.66170953 71.2864934 25.625 74.4375 C23.75355305 75.25815069 21.87765664 76.0686584 20 76.875 C18.95585938 77.32746094 17.91171875 77.77992188 16.8359375 78.24609375 C6.17079379 82.2033551 -8.61713934 82.2529522 -19.05078125 77.69921875 C-28.33583828 72.65875922 -35.563858 65.40510216 -39.375 55.4375 C-40.58118552 50.19540223 -40.63367445 45.10743653 -40.6875 39.75 C-40.71650391 38.80705078 -40.74550781 37.86410156 -40.77539062 36.89257812 C-40.87910668 25.28435811 -36.40256398 16.68519828 -28.375 8.4375 C-20.05617649 1.57898279 -10.51398444 -0.10487981 0 0 Z " fill="#FFFFFF" transform="translate(496.375,116.5625)"/>
<path d="M0 0 C7.81452752 -0.02526563 15.62904458 -0.04283105 23.44360352 -0.05493164 C26.10441481 -0.05997383 28.76522332 -0.06680736 31.42602539 -0.07543945 C35.24105516 -0.08751009 39.05604844 -0.09322929 42.87109375 -0.09765625 C44.66793861 -0.10539818 44.66793861 -0.10539818 46.50108337 -0.11329651 C48.15268211 -0.11340981 48.15268211 -0.11340981 49.83764648 -0.11352539 C50.81249496 -0.115746 51.78734344 -0.11796661 52.79173279 -0.12025452 C55 0 55 0 56 1 C56.08651611 2.41570123 56.10704904 3.835595 56.09765625 5.25390625 C56.09443359 6.10791016 56.09121094 6.96191406 56.08789062 7.84179688 C56.07532227 9.18854492 56.07532227 9.18854492 56.0625 10.5625 C56.05798828 11.46419922 56.05347656 12.36589844 56.04882812 13.29492188 C56.03700225 15.53001314 56.0205222 17.76497437 56 20 C54.35 20 52.7 20 51 20 C49.02 15.71 47.04 11.42 45 7 C34.11 6.505 34.11 6.505 23 6 C23 15.57 23 25.14 23 35 C29.435 34.505 29.435 34.505 36 34 C38.46399641 30.97811761 39.73118283 29.4172438 41 26 C42.32 26.33 43.64 26.66 45 27 C45 34.26 45 41.52 45 49 C43.35 48.67 41.7 48.34 40 48 C38.3125 45 38.3125 45 37 42 C33.73289481 40.18010841 33.73289481 40.18010841 24 41 C23.67 51.23 23.34 61.46 23 72 C30.92 71.67 38.84 71.34 47 71 C48.32 68.36 49.64 65.72 51 63 C52 61 53 59 54 57 C55.65 57 57.3 57 59 57 C58.67 63.6 58.34 70.2 58 77 C55.39009372 78.30495314 53.55320616 78.08067008 50.63232422 78.02172852 C49.51131317 78.00163223 48.39030212 77.98153595 47.23532104 77.96083069 C46.02071198 77.93379562 44.80610291 77.90676056 43.5546875 77.87890625 C41.69446457 77.84348976 41.69446457 77.84348976 39.79666138 77.80735779 C36.49875097 77.74364252 33.20097268 77.67544603 29.90319824 77.60510254 C26.5384034 77.53442463 23.17349635 77.46960444 19.80859375 77.40429688 C13.20561199 77.2749464 6.60277067 77.13968995 0 77 C0 75.68 0 74.36 0 73 C0.639375 72.896875 1.27875 72.79375 1.9375 72.6875 C2.618125 72.460625 3.29875 72.23375 4 72 C5.05036902 68.84889295 5.13301263 66.61536233 5.14526367 63.30688477 C5.15164352 62.13879776 5.15802338 60.97071075 5.16459656 59.76722717 C5.16570938 58.50470627 5.1668222 57.24218536 5.16796875 55.94140625 C5.17129715 54.64557114 5.17462555 53.34973602 5.17805481 52.01463318 C5.18404062 49.27170987 5.18589525 46.52881805 5.18530273 43.78588867 C5.1852011 40.27418353 5.19885701 36.76268052 5.21607494 33.25102329 C5.229878 29.89781448 5.22928388 26.54464312 5.23046875 23.19140625 C5.23765427 21.93090958 5.24483978 20.6704129 5.25224304 19.37171936 C5.24916641 18.20048019 5.24608978 17.02924103 5.24291992 15.82250977 C5.24434494 14.79231216 5.24576996 13.76211456 5.24723816 12.70069885 C4.99271259 9.92039622 4.58135312 8.29125262 3 6 C2.01 5.67 1.02 5.34 0 5 C0 3.35 0 1.7 0 0 Z " fill="#C0C0C0" transform="translate(393,118)"/>
<path d="M0 0 C2.64 0 5.28 0 8 0 C8.81436868 1.76997474 9.6264294 3.54101152 10.4375 5.3125 C10.88996094 6.29863281 11.34242188 7.28476563 11.80859375 8.30078125 C13 11 13 11 14 14 C14.34933594 13.15695313 14.69867188 12.31390625 15.05859375 11.4453125 C15.51363281 10.34960938 15.96867187 9.25390625 16.4375 8.125 C16.88996094 7.03445312 17.34242188 5.94390625 17.80859375 4.8203125 C18.49543463 3.19441376 19.21065887 1.57868226 20 0 C22.97 0 25.94 0 29 0 C29 0.99 29 1.98 29 3 C28.01 3.495 28.01 3.495 27 4 C27 8.62 27 13.24 27 18 C27.66 18.33 28.32 18.66 29 19 C29 19.99 29 20.98 29 22 C26.04335481 23.4783226 23.25770263 23.06032783 20 23 C20 21.35 20 19.7 20 18 C20.33 18 20.66 18 21 18 C21 16.02 21 14.04 21 12 C19.35 15.3 17.7 18.6 16 22 C14.68 22 13.36 22 12 22 C11.35242375 20.56328432 10.70700547 19.12559584 10.0625 17.6875 C9.70285156 16.88699219 9.34320313 16.08648437 8.97265625 15.26171875 C8 13 8 13 7 10 C6.67 12.97 6.34 15.94 6 19 C6.99 19 7.98 19 9 19 C8.67 20.32 8.34 21.64 8 23 C5.69 23 3.38 23 1 23 C0.4375 21.0625 0.4375 21.0625 0 19 C0.33 18.67 0.66 18.34 1 18 C1.09980173 15.73097824 1.12967809 13.45871075 1.125 11.1875 C1.12757813 9.94355469 1.13015625 8.69960937 1.1328125 7.41796875 C1.02767173 4.71213998 0.81143252 2.55665645 0 0 Z " fill="#FFFFFF" transform="translate(379,221)"/>
<path d="M0 0 C5.66666667 0 11.33333333 0 17 0 C17.99 -0.0825 18.98 -0.165 20 -0.25 C23 0 23 0 24.875 1.4375 C26.5494151 5.25144551 26.23678107 8.89579485 26 13 C26.66 13 27.32 13 28 13 C28.33 13.99 28.66 14.98 29 16 C21.25 17.125 21.25 17.125 19 16 C19 15.01 19 14.02 19 13 C19.66 13 20.32 13 21 13 C20.67 10.36 20.34 7.72 20 5 C19.01 5 18.02 5 17 5 C16.67 7.64 16.34 10.28 16 13 C16.66 13 17.32 13 18 13 C17.67 14.32 17.34 15.64 17 17 C11.72 17 6.44 17 1 17 C0.67 15.35 0.34 13.7 0 12 C0.66 12 1.32 12 2 12 C2 9.36 2 6.72 2 4 C1.34 4 0.68 4 0 4 C0 2.68 0 1.36 0 0 Z M7 4 C5.58422523 5.18424326 5.58422523 5.18424326 5.9375 8.5625 C5.958125 9.696875 5.97875 10.83125 6 12 C8.475 12.495 8.475 12.495 11 13 C11 10.03 11 7.06 11 4 C9.68 4 8.36 4 7 4 Z " fill="#FFFFFF" transform="translate(427,227)"/>
<path d="M0 0 C2.27024968 -0.08097324 4.54132075 -0.13917704 6.8125 -0.1875 C8.07707031 -0.22230469 9.34164063 -0.25710937 10.64453125 -0.29296875 C14 0 14 0 15.93359375 1.3203125 C17.55986893 3.88184483 17.2516728 6.04284463 17 9 C16.67 9.66 16.34 10.32 16 11 C16.33 11.66 16.66 12.32 17 13 C17.45693563 18.36899365 17.45693563 18.36899365 15.6875 20.8125 C12.46610451 23.07940793 9.61537526 23.11188799 5.8125 23.0625 C4.91144531 23.05347656 4.01039063 23.04445312 3.08203125 23.03515625 C2.39496094 23.02355469 1.70789063 23.01195312 1 23 C0.4375 21.0625 0.4375 21.0625 0 19 C0.33 18.67 0.66 18.34 1 18 C1.23653523 15.47403741 1.42173692 12.96892793 1.5625 10.4375 C1.60568359 9.72658203 1.64886719 9.01566406 1.69335938 8.28320312 C1.79971777 6.52238088 1.90038846 4.7612168 2 3 C1.34 3 0.68 3 0 3 C0 2.01 0 1.02 0 0 Z M6 3 C6 4.98 6 6.96 6 9 C7.65 9 9.3 9 11 9 C11.33 7.35 11.66 5.7 12 4 C9.03 3.505 9.03 3.505 6 3 Z M6 13 C6 14.98 6 16.96 6 19 C7.98 18.67 9.96 18.34 12 18 C11.67 16.35 11.34 14.7 11 13 C9.35 13 7.7 13 6 13 Z " fill="#FFFFFF" transform="translate(253,221)"/>
<path d="M0 0 C2.31 0 4.62 0 7 0 C7.33 2.31 7.66 4.62 8 7 C9.423125 6.938125 9.423125 6.938125 10.875 6.875 C14 7 14 7 16 9 C16.38015988 11.5963192 16.50595314 14.1662335 16.65625 16.78515625 C16.7696875 17.51605469 16.883125 18.24695313 17 19 C17.66 19.33 18.32 19.66 19 20 C19 20.99 19 21.98 19 23 C16.29120665 24.35439668 13.99066732 24.06501451 11 24 C10.67 22.68 10.34 21.36 10 20 C10.66 20 11.32 20 12 20 C11.67 17.36 11.34 14.72 11 12 C10.01 12 9.02 12 8 12 C7.92543964 15.87713858 7.99288403 19.25928354 9 23 C8 24 8 24 4.4375 24.0625 C3.303125 24.041875 2.16875 24.02125 1 24 C0.4375 22.0625 0.4375 22.0625 0 20 C0.33 19.67 0.66 19.34 1 19 C1.10044341 16.55095331 1.13874416 14.13625103 1.125 11.6875 C1.13080078 10.67139648 1.13080078 10.67139648 1.13671875 9.63476562 C1.13016123 6.2805945 1.03843151 3.20595124 0 0 Z " fill="#FFFFFF" transform="translate(311,220)"/>
<path d="M0 0 C0.08733513 3.08315385 0.14050127 6.16598827 0.1875 9.25 C0.21263672 10.12269531 0.23777344 10.99539062 0.26367188 11.89453125 C0.33688725 18.28867436 0.33688725 18.28867436 -1.2265625 21.58984375 C-3.48971795 23.38940127 -4.69874263 23.44931872 -7.5625 23.3125 C-8.74005859 23.27576172 -8.74005859 23.27576172 -9.94140625 23.23828125 C-12 23 -12 23 -14 22 C-13.67 20.35 -13.34 18.7 -13 17 C-9.04 17.99 -9.04 17.99 -5 19 C-5 18.34 -5 17.68 -5 17 C-6.6396875 16.9071875 -6.6396875 16.9071875 -8.3125 16.8125 C-12 16 -12 16 -13.9375 13.8125 C-15.19083603 10.4948458 -15.58556445 8.51338668 -15 5 C-11.06351469 -1.03594414 -6.54979456 -0.57231215 0 0 Z M-9 4 C-10.21297649 6.2806707 -10.21297649 6.2806707 -11 9 C-10.23396041 11.2857711 -10.23396041 11.2857711 -9 13 C-7.35 12.67 -5.7 12.34 -4 12 C-4 9.36 -4 6.72 -4 4 C-5.65 4 -7.3 4 -9 4 Z " fill="#FFFFFF" transform="translate(309,227)"/>
<path d="M0 0 C2.10353495 -0.0810206 4.20795952 -0.13919907 6.3125 -0.1875 C7.48425781 -0.22230469 8.65601563 -0.25710937 9.86328125 -0.29296875 C13 0 13 0 14.87890625 1.234375 C16.24879101 3.39182417 16.46210602 4.89549657 16.625 7.4375 C16.79314729 9.80357254 16.98032094 11.92535077 17.5859375 14.22265625 C17.72257812 14.80917969 17.85921875 15.39570313 18 16 C17 17 17 17 13.4375 17.0625 C12.303125 17.041875 11.16875 17.02125 10 17 C9.67 15.68 9.34 14.36 9 13 C9.66 13 10.32 13 11 13 C11 10.03 11 7.06 11 4 C9.68 4.33 8.36 4.66 7 5 C6.67 7.64 6.34 10.28 6 13 C6.66 13 7.32 13 8 13 C7.67 14.32 7.34 15.64 7 17 C4.69 17 2.38 17 0 17 C-0.33 15.68 -0.66 14.36 -1 13 C-0.34 12.67 0.32 12.34 1 12 C1.46523063 10.10466658 1.46523063 10.10466658 1.625 7.9375 C1.74875 6.638125 1.8725 5.33875 2 4 C1.01 3.67 0.02 3.34 -1 3 C-0.67 2.01 -0.34 1.02 0 0 Z " fill="#FFFFFF" transform="translate(473,227)"/>
<path d="M0 0 C3.9375 0.5625 3.9375 0.5625 5.9375 2.25 C7.08369401 4.90057365 7.24662771 6.70306871 6.9375 9.5625 C4.89051586 11.60948414 0.63338759 11.26295693 -2.0625 11.5625 C-1.32 11.706875 -0.5775 11.85125 0.1875 12 C2.45777739 12.46437492 4.69509479 12.98113569 6.9375 13.5625 C6.6075 14.5525 6.2775 15.5425 5.9375 16.5625 C2.90984933 17.22871507 0.04303457 17.67155723 -3.0625 17.5625 C-6.125 15.5625 -6.125 15.5625 -8.0625 12.5625 C-8.72404724 8.44620608 -8.45725662 6.33556506 -6.5625 2.625 C-3.94402383 0.46475716 -3.23698597 0.178839 0 0 Z M-2.0625 4.5625 C-2.3925 5.2225 -2.7225 5.8825 -3.0625 6.5625 C-1.0825 6.5625 0.8975 6.5625 2.9375 6.5625 C2.6075 5.9025 2.2775 5.2425 1.9375 4.5625 C0.6175 4.5625 -0.7025 4.5625 -2.0625 4.5625 Z " fill="#FFFFFF" transform="translate(349.0625,226.4375)"/>
<path d="M0 0 C1.875 1.125 1.875 1.125 3 3 C3.75 6.125 3.75 6.125 4 9 C3 10 3 10 0.93359375 10.09765625 C0.10988281 10.08605469 -0.71382813 10.07445312 -1.5625 10.0625 C-2.38878906 10.05347656 -3.21507812 10.04445312 -4.06640625 10.03515625 C-4.70449219 10.02355469 -5.34257812 10.01195312 -6 10 C-5.67 10.66 -5.34 11.32 -5 12 C-2.36 12 0.28 12 3 12 C2.67 13.32 2.34 14.64 2 16 C-5.2972973 17.21621622 -5.2972973 17.21621622 -8.4375 16.25 C-10 15 -10 15 -11 12 C-11.41011236 4.48127341 -11.41011236 4.48127341 -9 1 C-5.95016004 -0.52491998 -3.3576631 -0.23562548 0 0 Z M-6 4 C-6.33 4.66 -6.66 5.32 -7 6 C-5.02 6 -3.04 6 -1 6 C-1.66 5.34 -2.32 4.68 -3 4 C-3.99 4 -4.98 4 -6 4 Z " fill="#FFFFFF" transform="translate(467,227)"/>
<path d="M0 0 C1.90625 0.40625 1.90625 0.40625 4.40625 1.84375 C6.63545717 5.65197891 6.81330593 9.10759365 5.90625 13.40625 C3.36853253 16.46643871 1.78890681 17.24075185 -2.09375 17.96875 C-6.22982554 17.19323584 -7.64374553 15.79302089 -10.09375 12.40625 C-10.75529724 8.28995608 -10.48850662 6.17931506 -8.59375 2.46875 C-5.552852 -0.03999085 -3.85236341 -0.28748981 0 0 Z M-4.09375 4.40625 C-5.50952477 5.59049326 -5.50952477 5.59049326 -5.15625 8.96875 C-5.135625 10.103125 -5.115 11.2375 -5.09375 12.40625 C-2.69655568 13.08583603 -2.69655568 13.08583603 -0.09375 13.40625 C2.25598818 11.50869856 2.25598818 11.50869856 2.03125 8.28125 C1.99 7.3325 1.94875 6.38375 1.90625 5.40625 C0.91625 5.07625 -0.07375 4.74625 -1.09375 4.40625 C-1.42375 4.73625 -1.75375 5.06625 -2.09375 5.40625 C-2.75375 5.07625 -3.41375 4.74625 -4.09375 4.40625 Z " fill="#FFFFFF" transform="translate(419.09375,226.59375)"/>
<path d="M0 0 C0.33 0.66 0.66 1.32 1 2 C3.64 2 6.28 2 9 2 C9 3.65 9 5.3 9 7 C7.35 7 5.7 7 4 7 C4.61865626 11.72442136 4.61865626 11.72442136 5.625 16.375 C5.74875 16.91125 5.8725 17.4475 6 18 C5 19 5 19 1.4375 19.0625 C0.303125 19.041875 -0.83125 19.02125 -2 19 C-2.5625 17.0625 -2.5625 17.0625 -3 15 C-2.67 14.67 -2.34 14.34 -2 14 C-1.76924918 12.65252916 -1.58846937 11.29622435 -1.4375 9.9375 C-1.293125 8.638125 -1.14875 7.33875 -1 6 C-1.66 6 -2.32 6 -3 6 C-2.67 4.68 -2.34 3.36 -2 2 C-1.34 2 -0.68 2 0 2 C0 1.34 0 0.68 0 0 Z " fill="#FFFFFF" transform="translate(361,225)"/>
<path d="M0 0 C3.96 0 7.92 0 12 0 C12.33 1.32 12.66 2.64 13 4 C11.02 4.66 9.04 5.32 7 6 C7 7.98 7 9.96 7 12 C7.66 12.33 8.32 12.66 9 13 C8.67 14.32 8.34 15.64 8 17 C5.69 17 3.38 17 1 17 C0.67 15.68 0.34 14.36 0 13 C0.66 13 1.32 13 2 13 C2 10.03 2 7.06 2 4 C1.34 4 0.68 4 0 4 C0 2.68 0 1.36 0 0 Z " fill="#FFFFFF" transform="translate(271,227)"/>
<path d="M0 0 C1.32 0.33 2.64 0.66 4 1 C3.67 1.99 3.34 2.98 3 4 C4.32 4.33 5.64 4.66 7 5 C6.67 5.99 6.34 6.98 6 8 C5.01 8 4.02 8 3 8 C3.24631557 12.05085679 3.24631557 12.05085679 4 16 C5.92064793 17.5899433 5.92064793 17.5899433 8 18 C8 18.66 8 19.32 8 20 C4.625 20.625 4.625 20.625 1 21 C-1 19 -1 19 -1.1953125 16.3984375 C-1.17210937 15.40070313 -1.14890625 14.40296875 -1.125 13.375 C-1.10695313 12.37210938 -1.08890625 11.36921875 -1.0703125 10.3359375 C-1.04710937 9.56507813 -1.02390625 8.79421875 -1 8 C-1.66 8 -2.32 8 -3 8 C-3 6.68 -3 5.36 -3 4 C-2.34 4 -1.68 4 -1 4 C-0.67 2.68 -0.34 1.36 0 0 Z " fill="#FFFFFF" transform="translate(333,223)"/>
<path d="M0 0 C0.66 0.33 1.32 0.66 2 1 C2 2.32 2 3.64 2 5 C2.99 5 3.98 5 5 5 C5 6.32 5 7.64 5 9 C4.01 9 3.02 9 2 9 C2 11.97 2 14.94 2 18 C3.32 18 4.64 18 6 18 C5.67 19.32 5.34 20.64 5 22 C2.625 22.125 2.625 22.125 0 22 C-2 20 -2 20 -2.1953125 17.3984375 C-2.17210937 16.40070313 -2.14890625 15.40296875 -2.125 14.375 C-2.10695313 13.37210938 -2.08890625 12.36921875 -2.0703125 11.3359375 C-2.04710937 10.56507813 -2.02390625 9.79421875 -2 9 C-2.99 8.67 -3.98 8.34 -5 8 C-4.67 7.01 -4.34 6.02 -4 5 C-3.34 5 -2.68 5 -2 5 C-2 3.68 -2 2.36 -2 1 C-1.34 0.67 -0.68 0.34 0 0 Z " fill="#FFFFFF" transform="translate(496,222)"/>
<path d="M0 0 C1.98 0 3.96 0 6 0 C6.06058594 0.81984375 6.12117188 1.6396875 6.18359375 2.484375 C6.26738281 3.56203125 6.35117187 4.6396875 6.4375 5.75 C6.51871094 6.81734375 6.59992188 7.8846875 6.68359375 8.984375 C6.91614459 11.90892379 6.91614459 11.90892379 7.59765625 14.328125 C7.73042969 14.87984375 7.86320312 15.4315625 8 16 C7 17 7 17 3.9375 17.0625 C2.968125 17.041875 1.99875 17.02125 1 17 C0.34 15.68 -0.32 14.36 -1 13 C-0.01 13 0.98 13 2 13 C2 10.03 2 7.06 2 4 C1.01 3.67 0.02 3.34 -1 3 C-0.67 2.01 -0.34 1.02 0 0 Z " fill="#FFFFFF" transform="translate(285,227)"/>
<path d="M0 0 C1.98 0.495 1.98 0.495 4 1 C4 2.32 4 3.64 4 5 C2.35 4.67 0.7 4.34 -1 4 C-0.67 2.68 -0.34 1.36 0 0 Z " fill="#C0C0C0" transform="translate(287,220)"/>
<path d="M0 0 C0.33 0.99 0.66 1.98 1 3 C-0.32 3.33 -1.64 3.66 -3 4 C-2.01 2.68 -1.02 1.36 0 0 Z " fill="#C0C0C0" transform="translate(117,16)"/>
<path d="M0 0 C0.66 0 1.32 0 2 0 C2 0.66 2 1.32 2 2 C1.34 2 0.68 2 0 2 C0 1.34 0 0.68 0 0 Z " fill="#C0C0C0" transform="translate(230,238)"/>
<path d="" fill="#C0C0C0" transform="translate(0,0)"/>
<path d="M0 0 C0.66 0.66 1.32 1.32 2 2 C1.34 2 0.68 2 0 2 C0 1.34 0 0.68 0 0 Z " fill="#C0C0C0" transform="translate(177,210)"/>
<path d="" fill="#C0C0C0" transform="translate(0,0)"/>
<path d="M0 0 C0.33 0.66 0.66 1.32 1 2 C0.34 1.67 -0.32 1.34 -1 1 C-0.67 0.67 -0.34 0.34 0 0 Z " fill="#FFFFFF" transform="translate(293,145)"/>
<path d="M0 0 C0.66 0 1.32 0 2 0 C1.67 0.66 1.34 1.32 1 2 C0.67 1.34 0.34 0.68 0 0 Z " fill="#FFFFFF" transform="translate(375,122)"/>
<path d="M0 0 C2 1 2 1 2 1 Z " fill="#C0C0C0" transform="translate(100,354)"/>
<path d="" fill="#FFFFFF" transform="translate(0,0)"/>
<path d="" fill="#FFFFFF" transform="translate(0,0)"/>
<path d="" fill="#FFFFFF" transform="translate(0,0)"/>
<path d="M0 0 C2 1 2 1 2 1 Z " fill="#C0C0C0" transform="translate(319,244)"/>
<path d="M0 0 C2 1 2 1 2 1 Z " fill="##C0C0C0" transform="translate(434,232)"/>
<path d="" fill="#FFFFFF" transform="translate(0,0)"/>
<path d="" fill="#C0C0C0" transform="translate(0,0)"/>
<path d="" fill="#FFFFFF" transform="translate(0,0)"/>
<path d="" fill="#FFFFFF" transform="translate(0,0)"/>
<path d="" fill="#FFFFFF" transform="translate(0,0)"/>
<path d="M0 0 C2 1 2 1 2 1 Z " fill="#FFFFFF" transform="translate(162,183)"/>
<path d="" fill="#FFFFFF" transform="translate(0,0)"/>
<path d="" fill="#FFFFFF" transform="translate(0,0)"/>
<path d="" fill="#FFFFFF" transform="translate(0,0)"/>
<path d="" fill="#FFFFFF" transform="translate(0,0)"/>
<path d="M0 0 C2 1 2 1 2 1 Z " fill="#FFFFFF" transform="translate(126,151)"/>
<path d="" fill="#FFFFFF" transform="translate(0,0)"/>
<path d="" fill="#FFFFFF" transform="translate(0,0)"/>
<path d="" fill="#FFFFFF" transform="translate(0,0)"/>
<path d="M0 0 C2 1 2 1 2 1 Z " fill="#FFFFFF" transform="translate(290,127)"/>
<path d="" fill="#FFFFFF" transform="translate(0,0)"/>
<path d="M0 0 C2 1 2 1 2 1 Z " fill="#FFFFFF" transform="translate(95,17)"/>
<path d="" fill="#FFFFFF" transform="translate(0,0)"/>
<path d="" fill="#FFFFFF" transform="translate(0,0)"/>
<path d="" fill="#FFFFFF" transform="translate(0,0)"/>
<path d="" fill="#FFFFFF" transform="translate(0,0)"/>
<path d="" fill="#FFFFFF" transform="translate(0,0)"/>
<path d="" fill="#FFFFFF" transform="translate(0,0)"/>
<path d="" fill="#FFFFFF" transform="translate(0,0)"/>
<path d="" fill="#FFFFFF" transform="translate(0,0)"/>
<path d="" fill="#FFFFFF" transform="translate(0,0)"/>
<path d="" fill="#FFFFFF" transform="translate(0,0)"/>
<path d="" fill="#FFFFFF" transform="translate(0,0)"/>
<path d="" fill="#FFFFFF" transform="translate(0,0)"/>
<path d="" fill="#FFFFFF" transform="translate(0,0)"/>
<path d="" fill="#FFFFFF" transform="translate(0,0)"/>
<path d="" fill="#FFFFFF" transform="translate(0,0)"/>
<path d="" fill="#FFFFFF" transform="translate(0,0)"/>
<path d="" fill="#FFFFFF" transform="translate(0,0)"/>
<path d="" fill="#FFFFFF" transform="translate(0,0)"/>
<path d="" fill="#FFFFFF" transform="translate(0,0)"/>
<path d="" fill="#FFFFFF" transform="translate(0,0)"/>
<path d="" fill="#FFFFFF" transform="translate(0,0)"/>
<path d="" fill="#FFFFFF" transform="translate(0,0)"/>
<path d="" fill="#FFFFFF" transform="translate(0,0)"/>
<path d="" fill="#FFFFFF" transform="translate(0,0)"/>
<path d="" fill="#FFFFFF" transform="translate(0,0)"/>
<path d="" fill="#FFFFFF" transform="translate(0,0)"/>
<path d="" fill="#FFFFFF" transform="translate(0,0)"/>
<path d="" fill="#FFFFFF" transform="translate(0,0)"/>
<path d="" fill="#FFFFFF" transform="translate(0,0)"/>
<path d="" fill="#FFFFFF" transform="translate(0,0)"/>
<path d="" fill="#FFFFFF" transform="translate(0,0)"/>
<path d="" fill="#FFFFFF" transform="translate(0,0)"/>
<path d="" fill="#FFFFFF" transform="translate(0,0)"/>
<path d="" fill="#FFFFFF" transform="translate(0,0)"/>
<path d="" fill="#FFFFFF" transform="translate(0,0)"/>
<path d="" fill="#FFFFFF" transform="translate(0,0)"/>
<path d="" fill="#FFFFFF" transform="translate(0,0)"/>
<path d="" fill="#FFFFFF" transform="translate(0,0)"/>
<path d="" fill="#FFFFFF" transform="translate(0,0)"/>
<path d="" fill="#FFFFFF" transform="translate(0,0)"/>
<path d="" fill="#FFFFFF" transform="translate(0,0)"/>
<path d="" fill="#FFFFFF" transform="translate(0,0)"/>
<path d="" fill="#FFFFFF" transform="translate(0,0)"/>
<path d="" fill="#FFFFFF" transform="translate(0,0)"/>
<path d="" fill="#FFFFFF" transform="translate(0,0)"/>
<path d="" fill="#FFFFFF" transform="translate(0,0)"/>
<path d="" fill="#FFFFFF" transform="translate(0,0)"/>
<path d="" fill="#FFFFFF" transform="translate(0,0)"/>
<path d="" fill="#FFFFFF" transform="translate(0,0)"/>
<path d="" fill="#FFFFFF" transform="translate(0,0)"/>
<path d="" fill="#FFFFFF" transform="translate(0,0)"/>
<path d="" fill="#FFFFFF" transform="translate(0,0)"/>
<path d="" fill="#FFFFFF" transform="translate(0,0)"/>
<path d="" fill="#FFFFFF" transform="translate(0,0)"/>
<path d="" fill="#FFFFFF" transform="translate(0,0)"/>
<path d="" fill="#FFFFFF" transform="translate(0,0)"/>
<path d="" fill="#FFFFFF" transform="translate(0,0)"/>
<path d="" fill="#FFFFFF" transform="translate(0,0)"/>
<path d="" fill="#FFFFFF" transform="translate(0,0)"/>
<path d="" fill="#FFFFFF" transform="translate(0,0)"/>
<path d="" fill="#FFFFFF" transform="translate(0,0)"/>
<path d="" fill="#FFFFFF" transform="translate(0,0)"/>
<path d="" fill="#FFFFFF" transform="translate(0,0)"/>
<path d="" fill="#FFFFFF" transform="translate(0,0)"/>
<path d="" fill="#FFFFFF" transform="translate(0,0)"/>
<path d="" fill="#FFFFFF" transform="translate(0,0)"/>
<path d="" fill="#FFFFFF" transform="translate(0,0)"/>
<path d="" fill="#FFFFFF" transform="translate(0,0)"/>
<path d="" fill="#FFFFFF" transform="translate(0,0)"/>
<path d="" fill="#FFFFFF" transform="translate(0,0)"/>
<path d="" fill="#FFFFFF" transform="translate(0,0)"/>
<path d="" fill="#FFFFFF" transform="translate(0,0)"/>
<path d="" fill="#FFFFFF" transform="translate(0,0)"/>
<path d="" fill="#FFFFFF" transform="translate(0,0)"/>
<path d="" fill="#FFFFFF" transform="translate(0,0)"/>
<path d="" fill="#FFFFFF" transform="translate(0,0)"/>
<path d="" fill="#FFFFFF" transform="translate(0,0)"/>
<path d="" fill="#FFFFFF" transform="translate(0,0)"/>
<path d="" fill="#FFFFFF" transform="translate(0,0)"/>
<path d="" fill="#FFFFFF" transform="translate(0,0)"/>
<path d="" fill="#FFFFFF" transform="translate(0,0)"/>
<path d="" fill="#FFFFFF" transform="translate(0,0)"/>
<path d="" fill="#FFFFFF" transform="translate(0,0)"/>
<path d="" fill="#FFFFFF" transform="translate(0,0)"/>
<path d="" fill="#FFFFFF" transform="translate(0,0)"/>
<path d="" fill="#FFFFFF" transform="translate(0,0)"/>
<path d="" fill="#FFFFFF" transform="translate(0,0)"/>
<path d="" fill="#FFFFFF" transform="translate(0,0)"/>
<path d="" fill="#FFFFFF" transform="translate(0,0)"/>
<path d="" fill="#FFFFFF" transform="translate(0,0)"/>
<path d="" fill="#FFFFFF" transform="translate(0,0)"/>
<path d="" fill="#FFFFFF" transform="translate(0,0)"/>
<path d="" fill="#FFFFFF" transform="translate(0,0)"/>
<path d="" fill="#FFFFFF" transform="translate(0,0)"/>
<path d="" fill="#FFFFFF" transform="translate(0,0)"/>
<path d="" fill="#FFFFFF" transform="translate(0,0)"/>
<path d="" fill="#FFFFFF" transform="translate(0,0)"/>
<path d="" fill="#FFFFFF" transform="translate(0,0)"/>
<path d="" fill="#FFFFFF" transform="translate(0,0)"/>
<path d="" fill="#FFFFFF" transform="translate(0,0)"/>
<path d="" fill="#FFFFFF" transform="translate(0,0)"/>
<path d="" fill="#FFFFFF" transform="translate(0,0)"/>
<path d="" fill="#FFFFFF" transform="translate(0,0)"/>
<path d="" fill="#FFFFFF" transform="translate(0,0)"/>
<path d="" fill="#FFFFFF" transform="translate(0,0)"/>
<path d="" fill="#FFFFFF" transform="translate(0,0)"/>
<path d="" fill="#FFFFFF" transform="translate(0,0)"/>
<path d="" fill="#FFFFFF" transform="translate(0,0)"/>
<path d="" fill="#FFFFFF" transform="translate(0,0)"/>
<path d="" fill="#FFFFFF" transform="translate(0,0)"/>
<path d="" fill="#FFFFFF" transform="translate(0,0)"/>
<path d="" fill="#FFFFFF" transform="translate(0,0)"/>
<path d="" fill="#FFFFFF" transform="translate(0,0)"/>
<path d="" fill="#FFFFFF" transform="translate(0,0)"/>
<path d="" fill="#FFFFFF" transform="translate(0,0)"/>
<path d="" fill="#FFFFFF" transform="translate(0,0)"/>
</svg>
